<?xml version="1.0" encoding="UTF-8"?>
<svg version="1.1" xmlns="http://www.w3.org/2000/svg" width="512" height="512">
<path d="M0 0 C168.96 0 337.92 0 512 0 C512 168.96 512 337.92 512 512 C343.04 512 174.08 512 0 512 C0 343.04 0 174.08 0 0 Z " fill="#4469E7" transform="translate(0,0)"/>
<path d="M0 0 C5.38106436 4.39537407 9.38879149 9.85387448 11.58984375 16.45703125 C11.86627762 19.51458053 11.86723281 22.57583537 11.90234375 25.64453125 C11.94584961 26.88299805 11.94584961 26.88299805 11.99023438 28.14648438 C12.05854369 34.81452398 10.59757687 40.09461492 6.0847168 45.13964844 C3.16726507 47.7107034 -0.66516959 47.66070596 -4.41015625 47.45703125 C-7.41015625 45.95703125 -7.41015625 45.95703125 -9.41015625 43.45703125 C-10.20384122 40.28229136 -10.74331939 37.784177 -9.9375 34.57421875 C-8.51640328 28.86877858 -8.57232137 23.16262369 -11.16015625 17.89453125 C-14.13683792 14.66979277 -16.07690343 13.63571462 -20.44140625 13.05078125 C-31.52368224 12.75126028 -40.66909192 15.97365681 -48.828125 23.65625 C-59.87461951 36.23016103 -63.57623292 51.40492421 -63.66015625 67.70703125 C-63.68078125 68.69316406 -63.70140625 69.67929688 -63.72265625 70.6953125 C-63.78324704 82.19241537 -60.84187092 91.8637895 -52.69921875 100.2109375 C-41.392154 109.72890973 -26.3747746 109.55190712 -12.41015625 108.45703125 C-7.92965811 107.81365393 -3.7294432 106.79595418 0.58984375 105.45703125 C2.37455078 104.91755859 2.37455078 104.91755859 4.1953125 104.3671875 C6.47115622 103.66979155 8.74264172 102.95788124 11.0078125 102.2265625 C13.58984375 101.45703125 13.58984375 101.45703125 15.58984375 101.45703125 C15.60402344 100.81378906 15.61820312 100.17054688 15.6328125 99.5078125 C16.37647321 85.41845686 22.33290027 73.17075476 32.66796875 63.515625 C39.24899603 58.34666853 46.6303855 54.34347413 55.08984375 54.20703125 C56.04890625 54.18125 57.00796875 54.15546875 57.99609375 54.12890625 C60.58984375 54.45703125 60.58984375 54.45703125 62.43359375 55.78515625 C63.58984375 57.45703125 63.58984375 57.45703125 63.58984375 60.45703125 C64.57984375 60.12703125 65.56984375 59.79703125 66.58984375 59.45703125 C74.70319779 59.01448467 74.70319779 59.01448467 77.58984375 61.45703125 C78.67033532 65.85092433 78.49775438 69.23593575 77.59375 73.640625 C77.36453857 74.80948242 77.13532715 75.97833984 76.89916992 77.18261719 C76.65271729 78.40754883 76.40626465 79.63248047 76.15234375 80.89453125 C74.23575183 90.8987411 72.81055294 100.27429799 73.58984375 110.45703125 C78.87091452 110.03738626 81.63071294 109.18782595 85.46484375 105.51953125 C86.22539062 104.80925781 86.9859375 104.09898437 87.76953125 103.3671875 C90.53288803 100.46744186 90.7943122 98.40271131 91.203125 94.50390625 C94.59162274 63.91922271 94.59162274 63.91922271 101.58984375 56.45703125 C104.48889562 54.53973001 106.7672893 54.18397069 110.21484375 54.20703125 C110.99085938 54.201875 111.766875 54.19671875 112.56640625 54.19140625 C114.58984375 54.45703125 114.58984375 54.45703125 116.58984375 56.45703125 C116.14694599 62.91068434 114.56892242 69.0310471 112.96289062 75.27734375 C111.93395629 79.43830898 111.37834697 83.13158102 111.58984375 87.45703125 C112.29947266 86.00683594 112.29947266 86.00683594 113.0234375 84.52734375 C117.25925734 76.10125051 121.73349498 69.0703378 128.58984375 62.45703125 C129.13640625 61.92464844 129.68296875 61.39226562 130.24609375 60.84375 C134.67855764 56.84745941 139.27266485 54.65678805 145.21484375 54.14453125 C148.50561816 54.44923258 150.72663036 54.82090932 153.58984375 56.45703125 C158.10248133 63.66958785 155.27355284 73.47763013 153.65234375 81.26953125 C153.37874023 82.64141602 153.37874023 82.64141602 153.09960938 84.04101562 C152.43269977 87.37556364 151.751599 90.70649257 151.03515625 94.03076172 C150.43517468 97.29974026 150.49631527 100.4494837 150.52734375 103.76953125 C150.53636719 105.02378906 150.54539062 106.27804687 150.5546875 107.5703125 C150.56628906 108.52292969 150.57789063 109.47554688 150.58984375 110.45703125 C157.5527764 110.31197015 160.78544494 107.24258928 165.58984375 102.45703125 C166.44497559 101.77423096 167.30010742 101.09143066 168.18115234 100.38793945 C171.46758795 96.38898755 171.24189914 93.59511445 171.12109375 88.578125 C171.12435669 87.72904068 171.12761963 86.87995636 171.13098145 86.00514221 C171.14080166 83.30096146 171.11921174 80.59855322 171.08984375 77.89453125 C171.05120632 74.33007035 171.04487992 70.76772628 171.05859375 67.203125 C171.02916687 65.97800453 171.02916687 65.97800453 170.99914551 64.72813416 C171.01750366 60.72418325 171.16881277 58.90009718 173.97827148 55.94360352 C176.65384053 54.42060268 178.10739932 53.91466681 181.15234375 53.95703125 C181.89613281 53.94671875 182.63992188 53.93640625 183.40625 53.92578125 C186.46855559 54.67081445 187.60465372 56.03781241 189.58984375 58.45703125 C190.10400391 61.04052734 190.10400391 61.04052734 190.12890625 63.98046875 C190.15090088 65.07447998 190.17289551 66.16849121 190.19555664 67.2956543 C190.20192139 68.46265869 190.20828613 69.62966309 190.21484375 70.83203125 C190.26325883 73.2631249 190.3167261 75.69412269 190.375 78.125 C190.40352051 79.34751465 190.43204102 80.5700293 190.46142578 81.82958984 C190.65467928 87.28845011 191.12232555 92.70935316 191.65234375 98.14453125 C191.74402832 99.08796387 191.83571289 100.03139648 191.93017578 101.00341797 C192.14393829 103.15523985 192.36584938 105.30625039 192.58984375 107.45703125 C194.42324856 104.78325961 196.22748463 102.09097447 198.02734375 99.39453125 C198.54361328 98.64236328 199.05988281 97.89019531 199.59179688 97.11523438 C202.66838537 92.47018899 204.36124688 89.05765457 204.58984375 83.45703125 C204.28712414 82.11641582 203.95146404 80.7829723 203.58984375 79.45703125 C202.92171063 71.57306041 205.18350576 66.1467495 209.46484375 59.58203125 C213.02876336 56.01811164 216.14658419 54.60895331 221.15234375 54.08203125 C224.86246949 54.48677224 226.69156871 55.13841122 229.58984375 57.45703125 C232.69576891 62.33311655 232.06917058 67.89267199 231.58984375 73.45703125 C230.83306458 76.57601131 229.84256937 79.504178 228.58984375 82.45703125 C237.84839613 82.50066497 237.84839613 82.50066497 245.60546875 78.4140625 C246.5309119 76.69880149 247.40319999 74.95403319 248.2265625 73.1875 C252.49317387 64.64205201 261.01423607 59.09516784 269.58984375 55.45703125 C273.00059943 54.58438861 276.26130001 54.2708626 279.77734375 54.20703125 C280.63714844 54.18125 281.49695313 54.15546875 282.3828125 54.12890625 C283.11113281 54.2371875 283.83945312 54.34546875 284.58984375 54.45703125 C286.58984375 57.45703125 286.58984375 57.45703125 286.58984375 60.45703125 C288.07484375 59.96203125 288.07484375 59.96203125 289.58984375 59.45703125 C294.74576405 59.07511123 297.30510557 59.65943587 301.58984375 62.45703125 C301.30583713 70.90622832 300.21324605 78.8781716 298.52734375 87.14453125 C296.21849031 97.72596892 296.21849031 97.72596892 296.58984375 108.45703125 C297.24984375 109.11703125 297.90984375 109.77703125 298.58984375 110.45703125 C302.44348544 110.15429017 304.57677215 109.02681427 307.40234375 106.45703125 C308.08554687 105.83570313 308.76875 105.214375 309.47265625 104.57421875 C312.40119133 101.64568367 315.03668277 98.50201016 317.6328125 95.27734375 C319.96718467 93.10605147 321.42460615 92.6124439 324.58984375 92.45703125 C327.15385152 95.02103902 326.91618009 96.1448514 326.96484375 99.70703125 C326.86493797 104.81554697 325.98963483 107.50592269 322.58984375 111.45703125 C321.50703125 112.91109375 321.50703125 112.91109375 320.40234375 114.39453125 C315.37442099 120.29147769 307.83554398 126.82691711 299.98828125 127.76953125 C295.4269548 127.96624614 292.32023191 127.80230565 288.15234375 125.83203125 C285.3713083 123.2544862 283.45396498 120.75509189 281.58984375 117.45703125 C281.58984375 116.79703125 281.58984375 116.13703125 281.58984375 115.45703125 C280.92984375 115.45703125 280.26984375 115.45703125 279.58984375 115.45703125 C279.3371875 116.04226563 279.08453125 116.6275 278.82421875 117.23046875 C276.15073944 122.05288396 271.45446012 125.58180316 266.52734375 127.89453125 C260.02044303 129.14053352 254.34866691 128.81728759 248.58984375 125.45703125 C242.71910711 120.57060974 239.86228683 114.92674342 238.58984375 107.45703125 C238.39570196 104.73022158 238.43773501 102.1949886 238.58984375 99.45703125 C237.64882813 99.46863281 236.7078125 99.48023438 235.73828125 99.4921875 C234.49304688 99.50121094 233.2478125 99.51023437 231.96484375 99.51953125 C230.73507812 99.53113281 229.5053125 99.54273438 228.23828125 99.5546875 C224.91260584 99.46567049 221.84936787 99.09389212 218.58984375 98.45703125 C218.09355469 99.21886719 217.59726562 99.98070312 217.0859375 100.765625 C201.51919691 124.42588916 201.51919691 124.42588916 190.58984375 128.45703125 C186.62041904 129.0921392 185.0437645 128.69307004 181.46484375 126.83203125 C178.38081582 124.284356 176.52187569 121.94955052 174.58984375 118.45703125 C174.58984375 117.46703125 174.58984375 116.47703125 174.58984375 115.45703125 C173.68363281 116.14410156 172.77742188 116.83117187 171.84375 117.5390625 C163.33187898 123.88344511 155.86460112 129.23502103 144.796875 128.80859375 C139.73154927 128.00172771 135.79577995 126.01307796 132.65234375 121.95703125 C128.39466448 111.93896238 130.7799998 100.56471928 132.58984375 90.20703125 C132.780625 89.06878906 132.97140625 87.93054688 133.16796875 86.7578125 C133.63326642 83.98929133 134.10731443 81.22259156 134.58984375 78.45703125 C127.48954394 80.97913137 124.88082116 87.04461162 121.58984375 93.45703125 C117.74209734 101.81778863 114.80548827 110.41192743 112.32543945 119.2668457 C110.5360674 125.41844618 110.5360674 125.41844618 107.58984375 127.45703125 C100.79871293 129.10004677 100.79871293 129.10004677 96.65234375 126.89453125 C94.21791103 124.0174744 94.06809831 122.12700571 93.58984375 118.45703125 C92.96078125 118.92753906 92.33171875 119.39804687 91.68359375 119.8828125 C79.35078667 128.85381524 79.35078667 128.85381524 71.58984375 128.58203125 C64.9487621 127.4162398 60.33630778 121.67902573 56.58984375 116.45703125 C56.20054687 116.988125 55.81125 117.51921875 55.41015625 118.06640625 C50.03164198 124.85770999 44.53101654 127.77549018 35.96484375 128.95703125 C30.13139859 128.09281715 25.97025282 125.81446541 21.7734375 121.6875 C18.77419718 119.04047725 18.77419718 119.04047725 15.28515625 119.95703125 C14.10695313 120.45203125 12.92875 120.94703125 11.71484375 121.45703125 C10.3966644 121.97113608 9.074884 122.47608505 7.75 122.97265625 C7.06953613 123.22853516 6.38907227 123.48441406 5.68798828 123.74804688 C2.24040438 124.91302054 -1.26930858 125.57720143 -4.84765625 126.20703125 C-6.10449219 126.42875 -7.36132812 126.65046875 -8.65625 126.87890625 C-29.16573355 130.03749477 -48.96668821 128.90149953 -66.72265625 117.14453125 C-77.42330691 109.16612612 -84.06333663 98.09707026 -86.94140625 85.04296875 C-89.92936805 62.18506098 -85.49778732 39.64171134 -72.41015625 20.45703125 C-56.28754862 -0.15392135 -24.8505881 -15.90920956 0 0 Z " fill="#FCFDFE" transform="translate(140.41015625,168.54296875)"/>
<path d="M0 0 C-0.57352277 7.31442061 -1.7195325 14.39021599 -3.25 21.5625 C-3.44207031 22.53896484 -3.63414062 23.51542969 -3.83203125 24.52148438 C-5.40714369 31.92649414 -7.43422841 39.62281894 -14 44 C-16.9375 44.4375 -16.9375 44.4375 -20 44 C-22.7046318 41.34436515 -23.88683506 39.62513873 -24.56640625 35.87109375 C-24.5529239 24.02010445 -21.31345674 13.71233472 -13 5 C-8.90863847 1.59384222 -5.39595729 0 0 0 Z " fill="#624CE8" transform="translate(423,237)"/>
<path d="M0 0 C-1.15479073 8.01459238 -2.73388833 15.94806206 -4.375 23.875 C-4.6702356 25.37268921 -4.6702356 25.37268921 -4.97143555 26.90063477 C-6.15438606 32.49109814 -7.43661701 36.50955802 -11 41 C-11.680625 41.928125 -11.680625 41.928125 -12.375 42.875 C-14.9891143 44.68477144 -16.91757595 44.44034629 -20 44 C-23.18600148 41.69707502 -23.92583928 40.45417049 -24.56640625 36.53125 C-24.59431147 35.18778915 -24.59151901 33.84343725 -24.5625 32.5 C-24.55226807 31.79166016 -24.54203613 31.08332031 -24.53149414 30.35351562 C-24.14998676 20.76503548 -20.53036429 12.57549096 -13.8984375 5.625 C-9.56846972 1.91869013 -5.70946543 0 0 0 Z " fill="#3979EB" transform="translate(200,237)"/>
<path d="M0 0 C4.55555556 1.55555556 4.55555556 1.55555556 6 3 C5.83852617 7.84421485 5.64922283 10.11633559 2.75 14.0625 C0 16 0 16 -2.6875 16 C-5 15 -5 15 -7 12 C-6.7881686 7.1278779 -5.31632677 4.51731627 -2 1 C-1.34 0.67 -0.68 0.34 0 0 Z " fill="#5360E9" transform="translate(360,229)"/>
<path d="M0 0 C2 3 2 3 3.1875 5.8125 C6.13137629 10.98966174 9.91740588 14.16696235 15.4375 16.375 C16.7059375 16.684375 16.7059375 16.684375 18 17 C18 17.33 18 17.66 18 18 C12.06 18 6.12 18 0 18 C0 12.06 0 6.12 0 0 Z " fill="#F8FAFE" transform="translate(0,494)"/>
<path d="M0 0 C0.33 0 0.66 0 1 0 C1 5.61 1 11.22 1 17 C-4.94 17 -10.88 17 -17 17 C-15.68 16.34 -14.36 15.68 -13 15 C-6.73593471 11.26821642 -2.29697337 7.09973588 0 0 Z " fill="#FBFAFE" transform="translate(511,495)"/>
<path d="M0 0 C5.94 0 11.88 0 18 0 C18 5.61 18 11.22 18 17 C16.71128335 15.06692503 15.45797557 13.1095313 14.25 11.125 C10.38673867 5.75935926 6.41340829 2.67970217 0 1 C0 0.67 0 0.34 0 0 Z " fill="#FAFBFE" transform="translate(494,0)"/>
<path d="M0 0 C5.94 0 11.88 0 18 0 C16.02 0.99 16.02 0.99 14 2 C7.73593471 5.73178358 3.29697337 9.90026412 1 17 C0.67 17 0.34 17 0 17 C0 11.39 0 5.78 0 0 Z " fill="#F8FDFD" transform="translate(0,0)"/>
</svg>
